<svg xmlns="http://www.w3.org/2000/svg" viewBox="0 0 389.23 146.55"><defs><style>.cls-1{fill:#fff;}</style></defs><title>Zasób 4</title><g id="Warstwa_2" data-name="Warstwa 2"><g id="Warstwa_1-2" data-name="Warstwa 1"><path class="cls-1" d="M286.47,120.3l11.24-28.43h32.47L314.77,48.73,334,0l55.19,146.55h-40.7L339.1,120.3Z"/><path class="cls-1" d="M251.74,146.55,310.83,0H271.65L231.24,94.7,202.49,0H172.38L141.52,94.7,119.76,51.55l-19.7,60.68,20,34.32h38.55L186.5,61.62l26.59,84.93Z"/><path class="cls-1" d="M37.18,96.24H61.31a71.14,71.14,0,0,0,19.52-2.45l6.24-19.22,17.44-53.73a42.93,42.93,0,0,0-4.55-6Q86.53,0,60.66,0H0V146.55H37.18ZM69.12,33.71Q74.37,39,74.37,47.85T69.75,62q-5.06,5.81-18.63,5.81H37.18V28.43h14Q63.88,28.43,69.12,33.71Z"/></g></g></svg>