<svg xmlns="http://www.w3.org/2000/svg" viewBox="0 0 454.29 159.73"><defs><style>.cls-1{fill:#fff;}</style></defs><title>Zasób 1</title><g id="Warstwa_2" data-name="Warstwa 2"><g id="Warstwa_1-2" data-name="Warstwa 1"><path class="cls-1" d="M395.42,139v20.77h37.52c7.69,0,20.88-5.62,21.34-21.34v-8c0-13.43-11-21.34-21.34-21.34h-18.7V99.37H451.3V78.49H415.73c-9.18,0-21.46,7.57-21.46,21.69v7.23c0,14.11,12.16,21.34,21.46,21.34,25.82.11-6.2,0,17.67,0v10.1m-239-4.93s20.08-1.72,20.08-27.65-24.33-28.34-24.33-28.34H146.3v81.82h22V140l19,19.74H220Zm-8.49-16.75H168.33V98.45H186s4.93,1.84,4.93,9.29S185.89,117.16,185.89,117.16Zm83-38.67H246.48c-15.95,0-21.34,14.46-21.34,21.34v59.9h22.38V145.39h21v14.34H290.2V99.83C290.2,82.39,274.36,78.49,268.85,78.49Zm-.34,43.72H247.4V102.36s0-4.48,7-4.48h7.69c6.2,0,6.31,4.48,6.31,4.48v19.85Z"/><rect class="cls-1" x="300.41" y="78.49" width="23.29" height="81.24"/><polygon class="cls-1" points="356.41 138.73 356.41 78.49 333.23 78.49 333.23 138.73 333.23 159.73 356.41 159.73 387.73 159.73 387.73 138.73 356.41 138.73"/><path class="cls-1" d="M8,159.73H98.68s-17.33-79.06,40-111.08c12.51-6.08,52.32-28.8,117.5,19.39,2.07-1.72,4-3.1,4-3.1S200.58,5.39,134.14,12C100.75,15,59.67,45.44,35.57,85.6S8,159.73,8,159.73Z"/><path class="cls-1" d="M8,159.73H98.68s-17.33-79.06,40-111.08c12.51-6.08,52.32-28.8,117.5,19.39,2.07-1.72,4-3.1,4-3.1S200.58,5.39,134.14,12C100.75,15,59.67,45.44,35.57,85.6S8,159.73,8,159.73Z"/><path class="cls-1" d="M8,159.73H98.68s-17.33-79.06,40-111.08c12.51-6.08,52.32-28.8,117.5,19.39,2.07-1.72,4-3.1,4-3.1S200.58,5.39,134.14,12C100.63,15,59.55,45.44,35.46,85.6S8,159.73,8,159.73ZM196.91,18.47l.46-7.69c-1-.57-3.9-2-11.13-4l-.46,7.57C189.56,15.61,193.24,17,196.91,18.47Z"/><path class="cls-1" d="M186,42.8,185.55,50a64,64,0,0,1,11.36,1.38l.46-7.11A81.26,81.26,0,0,0,186,42.8ZM143.55,7h1.15L142.4,0a91.56,91.56,0,0,0-11,.69l2.18,6.77A96.87,96.87,0,0,1,143.55,7Zm5.51,42.23,2.64,7.92a72.6,72.6,0,0,1,10-4l-2.52-7.57A83.25,83.25,0,0,0,149.06,49.23ZM97,19,91.8,11.13c-2.87,1.49-5.85,3.1-9,4.93l5.28,8C91.11,22.26,94,20.54,97,19Zm23.52,51.64L126,78.95a63.72,63.72,0,0,1,6.77-8.15L127.6,63A63.48,63.48,0,0,0,120.49,70.68Zm-16.64,36.95,9.29,7.34a91.64,91.64,0,0,1,2.41-13.43L107.29,95A109.1,109.1,0,0,0,103.85,107.63ZM53.59,53.13,45.44,46c-3,2.87-5.85,5.74-8.49,8.61l8.84,7.57A116.21,116.21,0,0,1,53.59,53.13ZM18.93,104.42,5.74,99.6C3.56,104.54,1.15,110.27,0,113.37l13.2,4.82C14.69,114.29,17.1,108.67,18.93,104.42Zm83.19,32.36a116.57,116.57,0,0,0,1.38,14.46l13.77,4.93a151.67,151.67,0,0,1-2.75-14.92Z"/></g></g></svg>