<svg xmlns="http://www.w3.org/2000/svg" viewBox="0 0 350.81 209.78"><defs><style>.cls-1{fill:#fff;}</style></defs><title>Zasób 2</title><g id="Warstwa_2" data-name="Warstwa 2"><g id="Warstwa_1-2" data-name="Warstwa 1"><path class="cls-1" d="M98.86,76.19a35.3,35.3,0,0,0,1.28,10.38,62.45,62.45,0,0,0,3.73,8.4,5.08,5.08,0,0,1,.82,2.68c0,1.17-.7,2.33-2.22,3.5l-7.35,4.9a5.59,5.59,0,0,1-3,1.05,5.37,5.37,0,0,1-3.5-1.63,36.1,36.1,0,0,1-4.2-5.48c-1.17-2-2.33-4.2-3.62-6.88q-13.65,16.1-34.3,16.1c-9.8,0-17.62-2.8-23.34-8.4s-8.63-13.07-8.63-22.4c0-9.92,3.5-18,10.62-24s16.57-9.1,28.59-9.1a92.38,92.38,0,0,1,12.37.93c4.32.58,8.75,1.52,13.42,2.57V40.25c0-8.87-1.87-15.05-5.48-18.67s-10-5.37-19-5.37a53.09,53.09,0,0,0-12.6,1.52,93,93,0,0,0-12.6,4,33.48,33.48,0,0,1-4.08,1.52,7.16,7.16,0,0,1-1.87.35c-1.63,0-2.45-1.17-2.45-3.62V14.23a7.38,7.38,0,0,1,.82-4.08A8.74,8.74,0,0,1,25.47,7.7a67.17,67.17,0,0,1,14.7-5.25A70.74,70.74,0,0,1,58.38.23c13.88,0,24,3.15,30.57,9.45s9.68,15.87,9.68,28.7v37.8ZM51.49,93.92a37.81,37.81,0,0,0,12-2.1,26,26,0,0,0,11.08-7.47,18.52,18.52,0,0,0,4-7.47,41.89,41.89,0,0,0,1.17-10.15v-4.9a97.44,97.44,0,0,0-10.73-2,87.92,87.92,0,0,0-11-.7c-7.82,0-13.53,1.52-17.38,4.67s-5.72,7.58-5.72,13.42c0,5.48,1.4,9.57,4.32,12.37S46.12,93.92,51.49,93.92Zm93.69,12.6c-2.1,0-3.5-.35-4.43-1.17S139,103,138.3,100.81L110.88,10.62A20.44,20.44,0,0,1,109.83,6c0-1.87.93-2.92,2.8-2.92h11.43c2.22,0,3.73.35,4.55,1.17s1.63,2.33,2.33,4.55L150.55,86l18.2-77.24C169.34,6.42,170,4.9,171,4.2A8,8,0,0,1,175.64,3H185c2.22,0,3.73.35,4.67,1.17s1.75,2.33,2.22,4.55l18.43,78.17L230.47,8.75c.7-2.33,1.52-3.85,2.33-4.55A7.61,7.61,0,0,1,237.36,3h10.85A2.59,2.59,0,0,1,251.13,6a11.64,11.64,0,0,1-.23,1.87,16.6,16.6,0,0,1-.82,2.92L222,100.93q-1.05,3.5-2.45,4.55a7.46,7.46,0,0,1-4.43,1.17H205c-2.22,0-3.73-.35-4.67-1.17a8.27,8.27,0,0,1-2.22-4.67L180.07,25.55l-18,75.14c-.58,2.33-1.28,3.85-2.22,4.67s-2.57,1.17-4.67,1.17Zm149.93,3.15a77.21,77.21,0,0,1-18-2.1c-5.83-1.4-10.38-2.92-13.42-4.67a8.41,8.41,0,0,1-3.62-3.27,8.24,8.24,0,0,1-.7-3.27v-6c0-2.45.93-3.62,2.68-3.62a6.61,6.61,0,0,1,2.1.35c.7.23,1.75.7,2.92,1.17a63.46,63.46,0,0,0,12.83,4.08,70.07,70.07,0,0,0,13.88,1.4c7.35,0,13.07-1.28,17-3.85a12.56,12.56,0,0,0,6.07-11.08,11.36,11.36,0,0,0-3.15-8.17c-2.1-2.22-6.07-4.2-11.78-6.07l-16.92-5.25c-8.52-2.68-14.82-6.65-18.67-11.9a27.8,27.8,0,0,1-5.83-16.92,26,26,0,0,1,3.15-13,30,30,0,0,1,8.4-9.57A37,37,0,0,1,284.26,2,50.85,50.85,0,0,1,299,0a58.57,58.57,0,0,1,7.82.47c2.68.35,5.13.82,7.58,1.28s4.55,1.17,6.65,1.87a25.47,25.47,0,0,1,4.9,2.1,10.09,10.09,0,0,1,3.5,2.92,6.29,6.29,0,0,1,1.05,3.85V18c0,2.45-.93,3.73-2.68,3.73a12.14,12.14,0,0,1-4.43-1.4,53.38,53.38,0,0,0-22.4-4.55c-6.65,0-11.9,1.05-15.52,3.27s-5.48,5.6-5.48,10.38a11,11,0,0,0,3.5,8.28c2.33,2.22,6.65,4.43,12.83,6.42l16.57,5.25c8.4,2.68,14.47,6.42,18.08,11.2a26.4,26.4,0,0,1,5.37,16.33,30,30,0,0,1-3,13.53,31.38,31.38,0,0,1-8.52,10.27,37.61,37.61,0,0,1-13,6.53A55.48,55.48,0,0,1,295.11,109.68Z"/><path class="cls-1" d="M317.16,166.38c-38.39,28.35-94.16,43.4-142.11,43.4-67.21,0-127.76-24.85-173.5-66.16-3.62-3.27-.35-7.7,4-5.13C55,167.2,116,184.58,179.14,184.58a346.45,346.45,0,0,0,132.43-27.07C318,154.6,323.46,161.71,317.16,166.38Z"/><path class="cls-1" d="M333.15,148.18c-4.9-6.3-32.44-3-44.92-1.52-3.73.47-4.32-2.8-.93-5.25,21.94-15.4,58-11,62.19-5.83s-1.17,41.3-21.7,58.57c-3.15,2.68-6.18,1.28-4.78-2.22C327.67,180.38,338,154.36,333.15,148.18Z"/></g></g></svg>