<svg xmlns="http://www.w3.org/2000/svg" viewBox="0 0 391.28 126.23"><defs><style>.cls-1{fill:#fff;}</style></defs><title>Zasób 5</title><g id="Warstwa_2" data-name="Warstwa 2"><g id="Warstwa_1-2" data-name="Warstwa 1"><path class="cls-1" d="M90.91,70.63c0,25.66-17.52,42.07-45.11,42.07S0,96.29,0,70.63V14.76H28.69V70.63c0,11.17,7.59,18.07,17.24,18.07s16.28-6.76,16.28-18.07V14.76H90.91Z"/><path class="cls-1" d="M198.08,111.47H163.59L145.24,83.87l-18.07,27.59H93.65l34.21-49.25-32-47.46h33.38l16,25.25,16.14-25.25h33.8L163.59,61Z"/><path class="cls-1" d="M193.51,126.23,238.62,0h23.31L216.82,126.23Z"/><path class="cls-1" d="M348.44,70.63c0,25.66-17.52,42.07-45.11,42.07s-45.8-16.42-45.8-42.07V14.76h28.69V70.63c0,11.17,7.59,18.07,17.24,18.07s16.28-6.76,16.28-18.07V14.76h28.69Z"/><path class="cls-1" d="M362.58,111.47V14.76h28.69v96.71Z"/></g></g></svg>